#!OML:ASF X:\für Bonn\!DataBase\2005_08_12_Daniel\c3d\Daniel.ASF
:FULLY-SPECIFIED
:DEGREES
151
root 0.936051 7.44591 0.597227 146.15 -19.9197 -180.979
lowerback 84.3534 -10.282 19.9677
upperback 8.43013 -4.73598 1.79846
thorax -8.95901 -6.78083 -1.96852
lowerneck 10.3028 -9.66746 -1.76576
upperneck 11.5747 -14.8839 7.03172
head 2.78735 -7.62711 2.62914
rclavicle 4.6118e-014 1.20861e-013
rhumerus 6.53638 15.4328 -54.2898
rradius 31.5653
rwrist -20.5129
rhand -23.9479 6.29605
rfingers 7.12502
rthumb 2.52771 -23.6687
lclavicle 4.6118e-014 1.20861e-013
lhumerus -29.5441 4.4486 89.6161
lradius 47.0072
lwrist -7.93949
lhand -13.4024 -7.9525
lfingers 7.12502
lthumb 12.7053 21.641
rfemur 9.26048 -59.9501 -109.399
rtibia 152.786
rfoot -48.6806 54.6753
rtoes -18.4132
lfemur -48.4624 61.0056 31.4548
ltibia 151.818
lfoot -50.3441 -56.0568
ltoes 1.41303
152
root 0.935926 7.36893 0.574418 145.603 -19.9551 -180.797
lowerback 84.4243 -10.3084 20.0323
upperback 8.42481 -4.72569 1.8743
thorax -8.9368 -6.80979 -1.89493
lowerneck 10.3495 -9.714 -1.68503
upperneck 11.6542 -14.9539 6.92285
head 2.79435 -7.664 2.57997
rclavicle 1.06549e-013 3.65764e-014
rhumerus 6.0383 15.592 -54.4165
rradius 31.8821
rwrist -20.64
rhand -24.4087 6.32205
rfingers 7.12502
rthumb 2.08264 -23.6475
lclavicle 1.06549e-013 3.65764e-014
lhumerus -29.4711 4.56609 89.8185
lradius 46.4396
lwrist -8.48724
lhand -13.3483 -7.80583
lfingers 7.12502
lthumb 12.7575 21.7844
rfemur 9.92258 -59.0691 -111.417
rtibia 153.306
rfoot -49.5715 55.5143
rtoes -18.1955
lfemur -46.0465 62.0989 35.608
ltibia 152.412
lfoot -51.9411 -57.299
ltoes 1.69167
153
root 0.934972 7.29577 0.552664 145.092 -19.9853 -180.608
lowerback 84.4733 -10.3369 20.1071
upperback 8.40613 -4.69708 1.95013
thorax -8.93205 -6.82685 -1.83149
lowerneck 10.2987 -9.76997 -1.57485
upperneck 11.7901 -15.0368 6.76936
head 2.83112 -7.70326 2.50366
rclavicle 2.8625e-014 -3.02153e-014
rhumerus 5.51084 15.7096 -54.5674
rradius 32.1996
rwrist -20.7987
rhand -24.944 6.39704
rfingers 7.12502
rthumb 1.56564 -23.577
lclavicle 2.8625e-014 -3.02153e-014
lhumerus -29.4035 4.66983 90.0412
lradius 45.8815
lwrist -9.04795
lhand -13.2073 -7.66408
lfingers 7.12502
lthumb 12.8933 21.9176
rfemur 10.2821 -58.2677 -113.077
rtibia 153.784
rfoot -50.3439 56.4051
rtoes -17.9751
lfemur -43.5566 63.0443 39.8061
ltibia 152.967
lfoot -53.6908 -58.4908
ltoes 1.90396
154
root 0.933763 7.22568 0.531519 144.563 -20.0254 -180.418
lowerback 84.5031 -10.3609 20.1677
upperback 8.43052 -4.71013 2.03652
thorax -8.88092 -6.86754 -1.73953
lowerneck 10.0903 -9.80531 -1.50621
upperneck 11.9892 -15.1001 6.61458
head 2.91826 -7.7288 2.42232
rclavicle -9.54166e-015 -1.11319e-014
rhumerus 5.09124 15.8438 -54.7138
rradius 32.5137
rwrist -20.9823
rhand -25.3978 6.5389
rfingers 7.12502
rthumb 1.12739 -23.4379
lclavicle -9.54166e-015 -1.11319e-014
lhumerus -29.2702 4.75972 90.2568
lradius 45.36
lwrist -9.54263
lhand -13.0447 -7.40461
lfingers 7.12502
lthumb 13.0501 22.1671
rfemur 10.4797 -57.4409 -114.536
rtibia 154.221
rfoot -51.1208 57.2596
rtoes -17.7288
lfemur -41.2367 63.7398 43.7996
ltibia 153.489
lfoot -55.2895 -59.6587
ltoes 2.24871
155
root 0.932477 7.16 0.510897 144.095 -20.0301 -180.244
lowerback 84.5136 -10.3617 20.2124
upperback 8.43511 -4.69647 2.10538
thorax -8.86061 -6.88898 -1.67377
lowerneck 9.81584 -9.84286 -1.43454
upperneck 12.2576 -15.1764 6.44054
head 3.03949 -7.75912 2.32801
rclavicle -7.15625e-014 -2.8625e-014
rhumerus 4.63137 15.8342 -54.9455
rradius 32.8087
rwrist -21.0197
rhand -25.8312 6.68407
rfingers 7.12502
rthumb 0.708756 -23.2945
lclavicle -7.15625e-014 -2.8625e-014
lhumerus -29.1608 4.87204 90.4707
lradius 44.8497
lwrist -10.0723
lhand -12.7843 -7.22901
lfingers 7.12502
lthumb 13.3011 22.3265
rfemur 10.4168 -56.7837 -115.67
rtibia 154.631
rfoot -51.638 58.1696
rtoes -17.4561
lfemur -38.7205 64.3742 47.9257
ltibia 153.959
lfoot -57.1053 -60.7201
ltoes 2.54647
156
root 0.930498 7.09805 0.491455 143.629 -20.0578 -180.085
lowerback 84.504 -10.3651 20.244
upperback 8.45709 -4.7088 2.17009
thorax -8.82556 -6.92032 -1.60122
lowerneck 9.50446 -9.87023 -1.34566
upperneck 12.5436 -15.2395 6.2679
head 3.17148 -7.78132 2.22882
rclavicle 2.06736e-014 1.03368e-013
rhumerus 4.18145 15.762 -55.2234
rradius 33.0969
rwrist -20.955
rhand -26.1638 6.87326
rfingers 7.12502
rthumb 0.387557 -23.1061
lclavicle 2.06736e-014 1.03368e-013
lhumerus -29.0577 4.92367 90.6773
lradius 44.387
lwrist -10.4919
lhand -12.5312 -7.04298
lfingers 7.12502
lthumb 13.545 22.4965
rfemur 10.2541 -56.1561 -116.7
rtibia 155.007
rfoot -52.1961 59.0239
rtoes -17.2426
lfemur -36.8151 64.752 51.3245
ltibia 154.397
lfoot -58.5521 -61.7893
ltoes 2.85197
157
root 0.928514 7.04039 0.473095 143.194 -20.0771 -179.922
lowerback 84.451 -10.3453 20.2651
upperback 8.49239 -4.7147 2.25295
thorax -8.78156 -6.94975 -1.50993
lowerneck 9.22168 -9.90465 -1.2867
upperneck 12.7792 -15.3021 6.07626
head 3.28174 -7.80582 2.1315
rclavicle 8.74653e-014 1.41535e-013
rhumerus 3.77947 15.647 -55.4828
rradius 33.3646
rwrist -20.7934
rhand -26.4029 7.04352
rfingers 7.12502
rthumb 0.15659 -22.9362
lclavicle 8.74653e-014 1.41535e-013
lhumerus -28.9254 5.05635 90.9087
lradius 43.9314
lwrist -10.9194
lhand -12.1507 -6.81232
lfingers 7.12502
lthumb 13.9118 22.7023
rfemur 10.0509 -55.5792 -117.592
rtibia 155.341
rfoot -52.7515 59.8591
rtoes -16.9722
lfemur -35.0153 65.0569 54.5789
ltibia 154.795
lfoot -59.9902 -62.8148
ltoes 3.23985
158
root 0.927229 6.98674 0.454831 142.793 -20.0892 -179.785
lowerback 84.3593 -10.3191 20.2785
upperback 8.5479 -4.73256 2.29954
thorax -8.72433 -6.97491 -1.46061
lowerneck 8.91176 -9.92815 -1.21315
upperneck 13.0716 -15.365 5.92675
head 3.42047 -7.82854 2.04219
rclavicle -8.42847e-014 -7.15625e-014
rhumerus 3.37808 15.5066 -55.7845
rradius 33.6156
rwrist -20.5919
rhand -26.5126 7.18599
rfingers 7.12502
rthumb 0.0506769 -22.7937
lclavicle -8.42847e-014 -7.15625e-014
lhumerus -28.7783 5.0426 91.0892
lradius 43.4973
lwrist -11.268
lhand -11.8067 -6.62056
lfingers 7.12502
lthumb 14.2432 22.871
rfemur 9.66882 -55.121 -118.269
rtibia 155.651
rfoot -53.1535 60.6806
rtoes -16.7075
lfemur -33.4522 65.2578 57.5059
ltibia 155.153
lfoot -61.3438 -63.8082
ltoes 3.63173
159
root 0.924641 6.93722 0.439421 142.421 -20.1247 -179.645
lowerback 84.2049 -10.2965 20.2997
upperback 8.63405 -4.76811 2.36119
thorax -8.63769 -7.00737 -1.39529
lowerneck 8.61594 -9.96438 -1.11331
upperneck 13.3054 -15.4238 5.72522
head 3.52843 -7.84931 1.93449
rclavicle 2.54444e-014 2.70347e-014
rhumerus 3.00837 15.4684 -56.0006
rradius 33.8778
rwrist -20.4286
rhand -26.5529 7.33368
rfingers 7.12502
rthumb 0.01176 -22.6461
lclavicle 2.54444e-014 2.70347e-014
lhumerus -28.5736 5.11156 91.2879
lradius 43.0421
lwrist -11.594
lhand -11.4073 -6.5814
lfingers 7.12502
lthumb 14.6281 22.8827
rfemur 9.19769 -54.7713 -118.76
rtibia 155.912
rfoot -53.3863 61.498
rtoes -16.4459
lfemur -32.5231 65.3539 59.6703
ltibia 155.485
lfoot -62.3855 -64.738
ltoes 3.88329
160
root 0.922247 6.8917 0.424585 142.078 -20.1284 -179.523
lowerback 84.0335 -10.2303 20.2907
upperback 8.7228 -4.78449 2.42953
thorax -8.55495 -7.03172 -1.32208
lowerneck 8.3498 -9.99581 -1.0104
upperneck 13.5533 -15.4783 5.49965
head 3.63371 -7.87021 1.82005
rclavicle 2.38542e-014 -5.56597e-014
rhumerus 2.6795 15.4077 -56.1963
rradius 34.1018
rwrist -20.2077
rhand -26.3948 7.4425
rfingers 7.12502
rthumb 0.164459 -22.5372
lclavicle 2.38542e-014 -5.56597e-014
lhumerus -28.4099 5.15416 91.4856
lradius 42.6335
lwrist -11.8836
lhand -11.1503 -6.60838
lfingers 7.12502
lthumb 14.8757 22.8376
rfemur 8.60255 -54.5305 -119.063
rtibia 156.149
rfoot -53.4 62.3265
rtoes -16.1708
lfemur -31.3157 65.4414 62.0769
ltibia 155.771
lfoot -63.6543 -65.6833
ltoes 4.22353
161
root 0.920502 6.8531 0.412765 141.773 -20.1429 -179.367
lowerback 83.8113 -10.1937 20.3165
upperback 8.82729 -4.81338 2.49614
thorax -8.45564 -7.05755 -1.26148
lowerneck 8.17284 -10.0251 -0.935798
upperneck 13.6908 -15.5168 5.32662
head 3.69113 -7.88592 1.73634
rclavicle -1.11319e-014 -3.49861e-014
rhumerus 2.3722 15.3664 -56.3648
rradius 34.3335
rwrist -19.9251
rhand -26.1653 7.49611
rfingers 7.12502
rthumb 0.386091 -22.4833
lclavicle -1.11319e-014 -3.49861e-014
lhumerus -28.2121 5.18628 91.6881
lradius 42.2397
lwrist -12.1665
lhand -10.9603 -6.66564
lfingers 7.12502
lthumb 15.0587 22.7667
rfemur 8.08505 -54.3502 -119.233
rtibia 156.323
rfoot -53.4258 63.0793
rtoes -16.025
lfemur -31.2465 65.4331 63.2342
ltibia 156.014
lfoot -64.1003 -66.6797
ltoes 4.6746
162
root 0.918107 6.82093 0.402881 141.623 -20.1714 -179.271
lowerback 83.4546 -10.0871 20.2776
upperback 8.96482 -4.83633 2.56838
thorax -8.34758 -7.06891 -1.18812
lowerneck 7.98418 -10.0517 -0.838937
upperneck 13.8367 -15.5517 5.1508
head 3.75133 -7.89869 1.6474
rclavicle -6.36111e-015 -6.36111e-015
rhumerus 2.13784 15.3741 -56.4778
rradius 34.5035
rwrist -19.6535
rhand -25.9011 7.61409
rfingers 7.12502
rthumb 0.641231 -22.3647
lclavicle -6.36111e-015 -6.36111e-015
lhumerus -28.0065 5.25694 91.88
lradius 41.8749
lwrist -12.3976
lhand -10.8086 -6.84183
lfingers 7.12502
lthumb 15.2049 22.5795
rfemur 7.46676 -54.4258 -119.283
rtibia 156.482
rfoot -53.0845 63.8479
rtoes -15.8315
lfemur -31.6346 65.4878 63.7222
ltibia 156.203
lfoot -64.0426 -67.7588
ltoes 5.28139
163
root 0.916666 6.79373 0.394417 141.512 -20.1902 -179.128
lowerback 83.0599 -10.0114 20.2841
upperback 9.09453 -4.8458 2.62385
thorax -8.24807 -7.06596 -1.15626
lowerneck 7.84673 -10.0789 -0.726856
upperneck 13.9425 -15.5847 5.01294
head 3.79078 -7.91056 1.57293
rclavicle -8.11041e-014 -8.5875e-014
rhumerus 1.95426 15.2928 -56.6472
rradius 34.5729
rwrist -19.3098
rhand -25.585 7.67141
rfingers 7.12502
rthumb 0.94657 -22.3062
lclavicle -8.11041e-014 -8.5875e-014
lhumerus -27.8377 5.23316 92.0549
lradius 41.5493
lwrist -12.6194
lhand -10.824 -7.03142
lfingers 7.12502
lthumb 15.19 22.391
rfemur 6.99874 -54.5337 -119.294
rtibia 156.593
rfoot -52.8115 64.5494
rtoes -15.7075
lfemur -32.5892 65.5233 63.6438
ltibia 156.358
lfoot -63.5471 -68.9416
ltoes 5.96907
164
root 0.914733 6.77476 0.387477 141.461 -20.2135 -179.024
lowerback 82.6538 -9.9048 20.2306
upperback 9.218 -4.86757 2.68372
thorax -8.16658 -7.06673 -1.09458
lowerneck 7.72681 -10.0941 -0.653464
upperneck 13.9964 -15.5978 4.91047
head 3.81454 -7.91415 1.51903
rclavicle -3.33958e-014 1.59028e-015
rhumerus 1.88794 15.3768 -56.7791
rradius 34.5122
rwrist -18.9967
rhand -25.3056 7.7908
rfingers 7.12502
rthumb 1.2164 -22.1855
lclavicle -3.33958e-014 1.59028e-015
lhumerus -27.6912 5.23407 92.22
lradius 41.2694
lwrist -12.7431
lhand -10.8657 -7.24866
lfingers 7.12502
lthumb 15.1499 22.1768
rfemur 6.42565 -54.7639 -119.102
rtibia 156.649
rfoot -52.3 65.2605
rtoes -15.5342
lfemur -33.6042 65.5619 63.2604
ltibia 156.464
lfoot -62.816 -69.9088
ltoes 6.50524
165
root 0.909488 6.7645 0.38026 141.406 -20.2499 -178.928
lowerback 82.2392 -9.88861 20.2565
upperback 9.34258 -4.9196 2.68206
thorax -8.07717 -7.0674 -1.12049
lowerneck 7.58011 -10.1336 -0.500588
upperneck 14.0628 -15.6383 4.79143
head 3.84008 -7.92642 1.44501
rclavicle -1.39944e-013 -9.85972e-014
rhumerus 1.82407 15.4513 -56.9007
rradius 34.4293
rwrist -18.8635
rhand -25.0642 7.88295
rfingers 7.12502
rthumb 1.44955 -22.0919
lclavicle -1.39944e-013 -9.85972e-014
lhumerus -27.5618 5.14052 92.344
lradius 41.0236
lwrist -12.8382
lhand -10.9562 -7.48363
lfingers 7.12502
lthumb 15.0627 21.9484
rfemur 5.95 -54.8929 -118.93
rtibia 156.618
rfoot -52.0485 65.9518
rtoes -15.4187
lfemur -33.9584 65.5646 63.3523
ltibia 156.531
lfoot -62.9649 -70.5
ltoes 6.788
